{
    "accessors": [
        {
            "bufferView": 2,
            "componentType": 5126,
            "count": 380,
            "max": [1.0, 0.5615460276603699, 0.48636001348495483],
            "min": [-1.0, -0.5615460276603699, -0.48636001348495483],
            "type": "VEC3"
        },
        {
            "bufferView": 2,
            "byteOffset": 4560,
            "componentType": 5126,
            "count": 380,
            "max": [1.0, 0.9980524778366089, 1.0],
            "min": [-1.0, -0.9983806014060974, -1.0],
            "type": "VEC3"
        },
        {
            "bufferView": 3,
            "componentType": 5126,
            "count": 380,
            "max": [0.9999480843544006, 1.0, 0.9969491958618164, 1.0],
            "min": [-0.7063239812850952, -1.0, -0.8805119395256042, 1.0],
            "type": "VEC4"
        },
        {
            "bufferView": 1,
            "componentType": 5126,
            "count": 380,
            "max": [0.994189977645874, 0.9934229850769043],
            "min": [0.0042725298553705215, 0.00787022989243269],
            "type": "VEC2"
        },
        {
            "bufferView": 0,
            "componentType": 5125,
            "count": 1050,
            "type": "SCALAR"
        }
    ],
    "asset": {
        "extras": {
            "author": "Javier.Herrera (https://sketchfab.com/Javier.Herrera)",
            "license": "CC-BY-4.0 (http://creativecommons.org/licenses/by/4.0/)",
            "source": "https://sketchfab.com/3d-models/bolt-m10x25-hexagon-head-e35ca3a7f829449ba1e72259ed33a144",
            "title": "Bolt M10x25 Hexagon Head"
        },
        "generator": "Sketchfab-12.68.0",
        "version": "2.0"
    },
    "bufferViews": [
        {
            "buffer": 0,
            "byteLength": 4200,
            "name": "floatBufferViews",
            "target": 34963
        },
        {
            "buffer": 0,
            "byteLength": 3040,
            "byteOffset": 4200,
            "byteStride": 8,
            "name": "floatBufferViews",
            "target": 34962
        },
        {
            "buffer": 0,
            "byteLength": 9120,
            "byteOffset": 7240,
            "byteStride": 12,
            "name": "floatBufferViews",
            "target": 34962
        },
        {
            "buffer": 0,
            "byteLength": 6080,
            "byteOffset": 16360,
            "byteStride": 16,
            "name": "floatBufferViews",
            "target": 34962
        }
    ],
    "buffers": [
        {
            "byteLength": 22440,
            "uri": "bolt.bin"
        }
    ],
    "images": [
        {
            "uri": "textures/BoltSteel_baseColor.jpeg"
        },
        {
            "uri": "textures/BoltSteel_metallicRoughness.png"
        },
        {
            "uri": "textures/BoltSteel_normal.png"
        }
    ],
    "materials": [
        {
            "doubleSided": true,
            "name": "BoltSteel",
            "normalTexture": {
                "index": 2
            },
            "occlusionTexture": {
                "index": 1
            },
            "pbrMetallicRoughness": {
                "baseColorTexture": {
                    "index": 0
                },
                "metallicRoughnessTexture": {
                    "index": 1
                },
                "roughnessFactor": 0.7467708588
            }
        }
    ],
    "meshes": [
        {
            "name": "defaultMaterial",
            "primitives": [
                {
                    "attributes": {
                        "NORMAL": 1,
                        "POSITION": 0,
                        "TANGENT": 2,
                        "TEXCOORD_0": 3
                    },
                    "indices": 4,
                    "material": 0,
                    "mode": 4
                }
            ]
        }
    ],
    "nodes": [
        {
            "children": [1],
            "matrix": [
                0.08027323335409164, 0.0, 0.0, 0.0, 0.0, 1.7824238386164125e-17,
                -0.08027323335409164, 0.0, 0.0, 0.08027323335409164,
                1.7824238386164125e-17, 0.0, 0.0, 0.0, 0.0, 1.0
            ],
            "name": "Sketchfab_model"
        },
        {
            "children": [2],
            "matrix": [
                1.0, 0.0, 0.0, 0.0, 0.0, -4.371139006309477e-8,
                0.999999999999999, 0.0, 0.0, -0.999999999999999,
                -4.371139006309477e-8, 0.0, 0.0, 0.0, 0.0, 1.0
            ],
            "name": "Collada visual scene group"
        },
        {
            "children": [3],
            "name": "LowMesh"
        },
        {
            "mesh": 0,
            "name": "defaultMaterial"
        }
    ],
    "samplers": [
        {
            "magFilter": 9729,
            "minFilter": 9987,
            "wrapS": 10497,
            "wrapT": 10497
        }
    ],
    "scene": 0,
    "scenes": [
        {
            "name": "Sketchfab_Scene",
            "nodes": [0]
        }
    ],
    "textures": [
        {
            "sampler": 0,
            "source": 0
        },
        {
            "sampler": 0,
            "source": 1
        },
        {
            "sampler": 0,
            "source": 2
        }
    ]
}
